# AST/ASF file generated using VICON BodyLanguage
# -----------------------------------------------
:version 1.10
:name VICON
:units
  mass 1.0
  length 0.45
  angle deg
:documentation
   .ast/.asf automatically generated from VICON data using
   VICON BodyBuilder and BodyLanguage model FoxedUp or BRILLIANT.MOD
:root
   order TX TY TZ RX RY RZ
   axis XYZ
   position 0 0 0  
   orientation 0 0 0 
:bonedata
  begin
     id 1 
     name lhipjoint
     direction 0.547975 -0.797114 0.253638 
     length 2.36201 
     axis 0 0 0  XYZ
  end
  begin
     id 2 
     name lfemur
     direction 0.34202 -0.939693 0  
     length 7.69075  
     axis 0 0 20  XYZ
    dof rx ry rz
    limits (-160.0 20.0)
           (-70.0 70.0)
           (-60.0 70.0)
  end
  begin
     id 3 
     name ltibia
     direction 0.34202 -0.939693 0   
     length 7.91399   
     axis 0 0 20   XYZ
    dof rx
    limits (-10.0 170.0)
  end
  begin
     id 4 
     name lfoot
     direction 0.0705293 -0.193778 0.978507   
     length 2.13618   
     axis -90 7.62852e-016 20   XYZ
    dof rx rz
    limits (-45.0 90.0)
           (-70.0 20.0)
  end
  begin
     id 5 
     name ltoes
     direction 1.53592e-011 -4.21925e-011 1   
     length 1.07518   
     axis -90 7.62852e-016 20   XYZ
    dof rx
    limits (-90.0 20.0)
  end
  begin
     id 6 
     name rhipjoint
     direction -0.57 -0.782963 0.249136   
     length 2.4047  
     axis 0 0 0  XYZ 
  end
  begin
     id 7 
     name rfemur
     direction -0.34202 -0.939693 0   
     length 7.51486   
     axis 0 0 -20   XYZ
    dof rx ry rz
    limits (-160.0 20.0)
           (-70.0 70.0)
           (-70.0 60.0)
  end
  begin
     id 8 
     name rtibia
     direction -0.34202 -0.939693 0   
     length 8.08317   
     axis 0 0 -20   XYZ
    dof rx
    limits (-10.0 170.0)
 end
 begin
     id 9 
     name rfoot
     direction -0.104954 -0.281256 0.953876   
     length 2.30343  
     axis -90 -7.62852e-016 -20   XYZ
    dof rx rz
    limits (-45.0 90.0)
           (-20.0 70.0)
  end
  begin
     id 10 
     name rtoes
     direction -1.53556e-011 -4.21922e-011 1   
     length 1.14803   
     axis -90 -7.62852e-016 -20   XYZ
    dof rx
    limits (-90.0 20.0)
  end
  begin
     id 11 
     name lowerback
     direction -0.0152855 0.99353 -0.11254   
     length 2.05311   
     axis 0 0 0   XYZ
    dof rx ry rz
    limits (-20.0 45.0)
           (-30.0 30.0)
           (-30.0 30.0)
  end
  begin
     id 12 
     name upperback
     direction -0.00157509 0.999443 -0.033332   
     length 2.06353   
     axis 0 0 0   XYZ
    dof rx ry rz
    limits (-20.0 45.0)
           (-30.0 30.0)
           (-30.0 30.0)
  end
  begin
     id 13 
     name thorax
     direction 0.00577788 0.999804 0.0189484   
     length 2.08472   
     axis 0 0 0   XYZ
    dof rx ry rz
    limits (-20.0 45.0)
           (-30.0 30.0)
           (-30.0 30.0)
  end
  begin
     id 14 
     name lowerneck
     direction -1.09301e-005 0.994719 0.10264   
     length 1.76249   
     axis 0 0 0   XYZ
    dof rx ry rz
    limits (-20.0 45.0)
           (-30.0 30.0)
           (-30.0 30.0)
  end
  begin
     id 15 
     name upperneck
     direction 0.0495018 0.988526 -0.142706   
     length 1.77897   
     axis 0 0 0   XYZ
    dof rx ry rz
    limits (-20.0 45.0)
           (-30.0 30.0)
           (-30.0 30.0)
  end
  begin
     id 16
     name head
     direction 0.0142736 0.998114 -0.0597101  
     length 1.78934  
     axis 0 0 0   XYZ
    dof rx ry rz
    limits (-20.0 45.0)
           (-30.0 30.0)
           (-30.0 30.0)
  end
  begin
     id 17 
     name lclavicle
     direction 0.918111 0.396107 -0.0130883  
     length 3.37276  
     axis 0 0 0   XYZ
    dof ry rz
    limits (-20.0 10.0)
           (0.0 20.0)
  end
  begin
     id 18 
     name lhumerus
     direction 1 -4.48975e-011 -3.26108e-027   
     length 5.34298   
     axis 180 -30 -90   XYZ
    dof rx ry rz
    limits (-60.0 90.0)
           (-90.0 90.0)
           (-90.0 90.0)
  end
  begin
     id 19
     name lradius
     direction 1 -4.48964e-011 -8.84413e-028   
     length 3.67262   
     axis 180 -30 -90   XYZ
    dof rx
    limits (-10.0 170.0)
  end
  begin
     id 20
     name lwrist
     direction 1 -4.48991e-011 -1.24264e-027   
     length 1.83631   
     axis -2.17013e-015 90 90   XYZ
    dof ry
    limits (-180.0 0.0)
 end
  begin
     id 21 
     name lhand
     direction 1 -4.48855e-011 -2.48528e-027   
     length 0.599298   
     axis 1.58582e-015 90 90   XYZ
    dof rx rz
    limits (-90.0 90.0)
           (-45.0 45.0)
  end
  begin
     id 22 
     name lfingers
     direction 1 -4.48811e-011 -4.97056e-027   
     length 0.48317   
     axis 3.17164e-015 90 90   XYZ
    dof rx
    limits (0.0 90.0)
  end
  begin
     id 23
     name lthumb
     direction 0.707107 -6.34882e-011 0.707107   
     length 0.693738   
     axis -90 45 2.85299e-015   XYZ
    dof rx rz
    limits (-45.0 45.0)
           (-45.0 45.0)
  end
  begin
     id 24 
     name rclavicle
     direction -0.920511 0.384752 -0.0680135   
     length 3.43787  
     axis 0 0 0   XYZ 
    dof ry rz
    limits (-10.0 20.0)
           (-20.0 0.0)
  end
  begin
     id 25 
     name rhumerus
     direction -0.999976 -0.00330524 0.00603274  
     length 5.5498   
     axis 180 30 90   XYZ
    dof rx ry rz
    limits (-90.0 60.0)
           (-90.0 90.0)
           (-90.0 90.0)
  end
  begin
     id 26 
     name rradius
     direction -1 -4.48967e-011 8.62438e-027   
     length 3.69401   
     axis 180 30 90   XYZ
    dof rx
    limits (-10.0 170.0)
  end
  begin
     id 27 
     name rwrist
     direction -1 -4.4897e-011 9.54866e-027   
     length 1.84701   
     axis -7.69462e-015 -90 -90   XYZ
    dof ry
    limits (-180.0 0.0)
  end
  begin
     id 28
     name rhand
     direction -1 -4.48982e-011 1.90973e-026   
     length 0.638113   
     axis -1.21857e-014 -90 -90   XYZ
    dof rx rz
    limits (-90.0 90.0)
           (-45.0 45.0)
  end
  begin
     id 29
     name rfingers
     direction -1 -4.48936e-011 3.81946e-026   
     length 0.514463   
     axis -2.43714e-014 -90 -90   XYZ
    dof rx
    limits (0.0 90.0)
  end
  begin
     id 30
     name rthumb
     direction -0.707107 -6.34942e-011 0.707107   
     length 0.738669   
     axis -90 -45 -2.85299e-015   XYZ
    dof rx rz
    limits (-45.0 45.0)
           (-45.0 45.0)
  end
:hierarchy
  begin
    root lhipjoint rhipjoint lowerback
    lhipjoint lfemur
    lfemur ltibia
    ltibia lfoot
    lfoot ltoes
    rhipjoint rfemur
    rfemur rtibia
    rtibia rfoot
    rfoot rtoes
    lowerback upperback
    upperback thorax
    thorax lowerneck lclavicle rclavicle
    lowerneck upperneck
    upperneck head
    lclavicle lhumerus
    lhumerus lradius
    lradius lwrist
    lwrist lhand lthumb
    lhand lfingers
    rclavicle rhumerus
    rhumerus rradius
    rradius rwrist
    rwrist rhand rthumb
    rhand rfingers
  end

#!OML:ASF F:\twosubjects\two\Thursday\Session 1\Rory.ASF
:FULLY-SPECIFIED
:DEGREES
316
root 11.173 18.9503 10.0186 -158.311 -77.478 162.74
lowerback -5.23139 -3.66255 -5.43527
upperback 0.167619 -4.53379 -1.28989
thorax 3.42018 -2.34861 1.32212
lowerneck 5.21289 -16.4845 -14.6014
upperneck 12.0287 -27.2397 21.2943
head 7.87089 -13.6252 6.74159
rclavicle 5.2914e-014 -1.43125e-014
rhumerus -40.3608 -18.9385 -75.2284
rradius 113.503
rwrist -16.3123
rhand -34.4309 40.9317
rfingers 7.12502
rthumb -7.5955 11.0881
lclavicle 5.2914e-014 -1.43125e-014
lhumerus -41.3912 -14.7954 90.0541
lradius 89.3776
lwrist 6.79787
lhand -6.01084 33.5272
lfingers 7.12502
lthumb 19.8219 62.5364
rfemur -3.62595 13.87 11.018
rtibia 9.3777
rfoot -7.37612 -8.5239
rtoes -15.3837
lfemur 2.39744 -1.39334 -20.1525
ltibia 4.22462
lfoot -11.1793 12.2371
ltoes 21.6418
317
root 11.1744 18.9512 10.0208 -157.551 -77.4422 161.967
lowerback -5.18608 -3.77728 -5.48239
upperback 0.192247 -4.68561 -1.33188
thorax 3.43069 -2.42545 1.29247
lowerneck 4.83563 -16.3958 -14.7447
upperneck 12.3495 -27.121 21.1751
head 8.01875 -13.5375 6.69972
rclavicle 1.05853e-014 3.06128e-014
rhumerus -40.2526 -18.0906 -75.7278
rradius 113.643
rwrist -15.6521
rhand -33.5287 38.3499
rfingers 7.12502
rthumb -6.72458 8.47665
lclavicle 1.05853e-014 3.06128e-014
lhumerus -40.5776 -15.7943 90.4307
lradius 90.9059
lwrist 7.42299
lhand -6.52217 33.4371
lfingers 7.12502
lthumb 19.3303 62.4964
rfemur -3.59659 13.8333 10.8713
rtibia 9.4069
rfoot -7.63654 -8.59249
rtoes -15.3835
lfemur 2.50964 -1.42427 -20.3402
ltibia 3.99514
lfoot -11.1269 12.2699
ltoes 21.7858
318
root 11.1705 18.9509 10.0116 -158.059 -77.3842 162.379
lowerback -5.11195 -3.74241 -5.43624
upperback 0.238992 -4.64466 -1.34004
thorax 3.43052 -2.40487 1.26567
lowerneck 4.88045 -16.3343 -14.6119
upperneck 12.1091 -26.9507 21.1695
head 7.87804 -13.4617 6.72139
rclavicle -3.97694e-014 -6.36111e-015
rhumerus -40.1412 -17.5332 -76.1081
rradius 113.71
rwrist -14.9286
rhand -32.2499 34.543
rfingers 7.12502
rthumb -5.49002 4.63411
lclavicle -3.97694e-014 -6.36111e-015
lhumerus -39.9176 -17.1547 90.8477
lradius 92.5703
lwrist 7.681
lhand -6.05671 32.3981
lfingers 7.12502
lthumb 19.7778 61.4119
rfemur -3.50726 13.9371 11.0581
rtibia 9.52842
rfoot -7.58204 -8.7283
rtoes -16.3236
lfemur 2.85986 -1.33892 -20.2334
ltibia 3.58227
lfoot -10.9744 12.2383
ltoes 21.7789
319
root 11.1696 18.9491 9.99638 -158.417 -77.2383 162.642
lowerback -5.05048 -3.68223 -5.61455
upperback 0.242461 -4.55885 -1.28702
thorax 3.4126 -2.36531 1.4303
lowerneck 4.97897 -16.2881 -14.5354
upperneck 12.0013 -26.7915 20.958
head 7.74972 -13.3958 6.687
rclavicle 2.21024e-014 -5.1684e-015
rhumerus -39.9898 -16.8594 -76.3383
rradius 113.63
rwrist -14.3798
rhand -30.9047 33.7651
rfingers 7.12502
rthumb -4.19114 3.82663
lclavicle 2.21024e-014 -5.1684e-015
lhumerus -39.2261 -18.6237 91.4071
lradius 94.0751
lwrist 7.94468
lhand -6.15549 31.5294
lfingers 7.12502
lthumb 19.6829 60.553
rfemur -3.49019 14.1021 11.0789
rtibia 9.58153
rfoot -7.33765 -8.71193
rtoes -17.5311
lfemur 3.11053 -1.18386 -20.1699
ltibia 3.36602
lfoot -10.9323 12.1791
ltoes 21.9202
320
root 11.1706 18.9487 9.98726 -157.791 -77.1713 161.95
lowerback -5.07848 -3.71915 -5.91863
upperback 0.28101 -4.58695 -1.26228
thorax 3.4969 -2.38721 1.6165
lowerneck 4.91702 -16.2167 -14.6388
upperneck 12.1146 -26.6617 20.8043
head 7.76196 -13.3308 6.66731
rclavicle -5.4554e-014 7.95139e-015
rhumerus -39.8224 -15.9051 -76.7574
rradius 113.608
rwrist -13.6869
rhand -31.0083 34.6169
rfingers 7.12502
rthumb -4.29114 4.6804
lclavicle -5.4554e-014 7.95139e-015
lhumerus -38.2537 -20.0015 91.8682
lradius 95.3785
lwrist 8.371
lhand -5.84877 30.9985
lfingers 7.12502
lthumb 19.9777 59.9915
rfemur -3.41409 14.103 10.8766
rtibia 9.47578
rfoot -7.2801 -8.70986
rtoes -17.6361
lfemur 2.99093 -1.17696 -20.3249
ltibia 3.73357
lfoot -11.2087 12.0852
ltoes 22.1096
321
root 11.1727 18.9522 9.99515 -157.141 -77.524 161.514
lowerback -5.23893 -3.86482 -5.7729
upperback 0.185459 -4.78253 -1.24614
thorax 3.49145 -2.47999 1.52731
lowerneck 4.93035 -16.1695 -14.7182
upperneck 12.3502 -26.6148 20.6213
head 7.80985 -13.3104 6.62728
rclavicle -1.03617e-014 -2.40529e-014
rhumerus -39.925 -14.9062 -77.2391
rradius 113.753
rwrist -12.8874
rhand -31.6673 36.2526
rfingers 7.12502
rthumb -4.92748 6.32989
lclavicle -1.03617e-014 -2.40529e-014
lhumerus -37.3876 -21.4579 92.2701
lradius 96.7822
lwrist 8.99633
lhand -5.90827 31.0029
lfingers 7.12502
lthumb 19.9205 60.0019
rfemur -3.50312 13.7027 10.9109
rtibia 9.33045
rfoot -7.21616 -8.74683
rtoes -17.1385
lfemur 2.46392 -1.53708 -20.3089
ltibia 4.17289
lfoot -11.3563 12.0292
ltoes 21.6843
322
root 11.1764 18.9573 10.0009 -157.493 -77.914 162.332
lowerback -5.5634 -3.96892 -5.31879
upperback -0.0197736 -4.93663 -1.18601
thorax 3.43752 -2.54459 1.31091
lowerneck 5.07013 -16.1614 -14.6811
upperneck 12.4281 -26.5765 20.3782
head 7.76072 -13.305 6.56755
rclavicle 2.80038e-014 2.10712e-014
rhumerus -40.115 -14.0818 -77.5393
rradius 113.906
rwrist -12.9622
rhand -30.6733 38.5319
rfingers 7.12502
rthumb -3.96764 8.58913
lclavicle 2.80038e-014 2.10712e-014
lhumerus -36.5208 -23.0485 92.6359
lradius 98.2218
lwrist 9.84888
lhand -6.62921 31.3268
lfingers 7.12502
lthumb 19.2274 60.3964
rfemur -3.84723 13.3414 11.2059
rtibia 9.12225
rfoot -7.0758 -8.70148
rtoes -17.2473
lfemur 1.67263 -1.82733 -19.9963
ltibia 4.60373
lfoot -11.4051 12.1209
ltoes 20.7298
323
root 11.1865 18.9536 9.99586 -157.932 -78.2606 162.405
lowerback -5.07088 -4.02966 -5.23835
upperback 0.0548509 -5.05145 -1.18095
thorax 3.2399 -2.59778 1.2942
lowerneck 5.14012 -16.1277 -14.6163
upperneck 12.355 -26.4744 20.26
head 7.67772 -13.2629 6.54949
rclavicle -9.97651e-015 3.97569e-016
rhumerus -40.1402 -13.3656 -77.9016
rradius 113.928
rwrist -13.581
rhand -28.4716 38.2174
rfingers 7.12502
rthumb -1.84136 8.24563
lclavicle -9.97651e-015 3.97569e-016
lhumerus -35.3416 -24.6976 92.9331
lradius 99.4705
lwrist 10.8215
lhand -6.94485 31.7932
lfingers 7.12502
lthumb 18.9239 60.8927
rfemur -3.26959 13.0793 11.5091
rtibia 8.9451
rfoot -7.12821 -8.58871
rtoes -17.0726
lfemur 1.86572 -2.14088 -19.8507
ltibia 4.91196
lfoot -11.5147 12.1765
ltoes 21.0005
324
root 11.1846 18.9533 9.99158 -158.257 -78.1902 162.611
lowerback -5.04489 -3.93713 -5.18128
upperback 0.104978 -4.93032 -1.22185
thorax 3.26102 -2.53754 1.23165
lowerneck 5.11082 -16.0983 -14.5171
upperneck 12.475 -26.4083 20.0847
head 7.66862 -13.2266 6.49058
rclavicle 7.93524e-014 -4.77083e-015
rhumerus -40.1654 -12.7059 -78.4127
rradius 113.937
rwrist -13.5733
rhand -27.3344 35.116
rfingers 7.12502
rthumb -0.74306 5.13751
lclavicle 7.93524e-014 -4.77083e-015
lhumerus -34.0908 -26.4091 93.1958
lradius 100.555
lwrist 11.4725
lhand -6.24717 31.4808
lfingers 7.12502
lthumb 19.5947 60.5133
rfemur -3.21774 13.1723 11.5584
rtibia 9.11346
rfoot -7.30524 -8.58416
rtoes -16.34
lfemur 2.174 -2.06227 -19.8037
ltibia 4.64671
lfoot -11.4602 12.1165
ltoes 22.5847
325
root 11.1812 18.9559 9.98684 -158.044 -78.0488 162.415
lowerback -5.14966 -3.80719 -5.21149
upperback 0.080022 -4.74888 -1.30693
thorax 3.27758 -2.44786 1.17121
lowerneck 5.1431 -16.123 -14.3334
upperneck 12.5936 -26.4017 19.8104
head 7.63354 -13.2225 6.38647
rclavicle -4.47638e-014 -1.66979e-014
rhumerus -40.276 -13.3228 -77.9495
rradius 114.466
rwrist -20.1866
rhand -18.4335 35.7227
rfingers 7.12502
rthumb 7.85194 5.88856
lclavicle -4.47638e-014 -1.66979e-014
lhumerus -32.7646 -28.0898 93.3609
lradius 101.48
lwrist 11.4953
lhand -4.07478 30.3532
lfingers 7.12502
lthumb 21.6821 59.1591
rfemur -3.56888 13.2852 11.4758
rtibia 9.70327
rfoot -7.58073 -8.68134
rtoes -16.3676
lfemur 2.72849 -1.95255 -19.852
ltibia 3.55166
lfoot -10.947 12.2159
ltoes 23.1659
326
root 11.1809 18.9479 9.98204 -156.799 -78.0529 161.137
lowerback -5.16475 -3.7879 -5.47108
upperback 0.0431216 -4.70823 -1.40508
thorax 3.25802 -2.43139 1.21732
lowerneck 5.21527 -16.1743 -14.1604
upperneck 12.5677 -26.3905 19.5197
head 7.54294 -13.2219 6.28543
rclavicle 7.53518e-014 -1.98785e-014
rhumerus -40.4894 -13.1585 -78.0026
rradius 114.883
rwrist -23.873
rhand -11.2425 39.2181
rfingers 7.12502
rthumb 14.7868 9.76557
lclavicle 7.53518e-014 -1.98785e-014
lhumerus -31.2795 -29.7063 93.3979
lradius 102.177
lwrist 11.5278
lhand -2.43092 29.8605
lfingers 7.12502
lthumb 23.26 58.4757
rfemur -3.69195 13.1823 11.2975
rtibia 10.1033
rfoot -7.70437 -8.68607
rtoes -17.4186
lfemur 3.11887 -2.06165 -20.1575
ltibia 2.5497
lfoot -10.0734 12.7797
ltoes 20.8635
327
root 11.1848 18.9239 9.97743 -156.666 -78.1623 161.007
lowerback -5.21183 -3.8221 -5.46882
upperback 0.043764 -4.75051 -1.41208
thorax 3.28704 -2.45286 1.20154
lowerneck 5.22938 -16.1527 -14.0766
upperneck 12.5094 -26.2925 19.3583
head 7.4676 -13.177 6.24493
rclavicle -5.37837e-014 -2.34566e-014
rhumerus -40.4914 -12.0765 -78.639
rradius 114.974
rwrist -23.8904
rhand -10.3858 39.2441
rfingers 7.12502
rthumb 15.6121 9.85407
lclavicle -5.37837e-014 -2.34566e-014
lhumerus -29.727 -31.4874 93.1715
lradius 102.752
lwrist 11.9128
lhand -2.87249 29.6556
lfingers 7.12502
lthumb 22.8363 58.3237
rfemur -3.8907 14.0196 11.3455
rtibia 10.6101
rfoot -7.82424 -9.59505
rtoes -17.7057
lfemur 3.56716 -2.17519 -20.3129
ltibia 0.968055
lfoot -7.5007 14.0826
ltoes 9.4399
328
root 11.1859 18.9311 9.97273 -157.327 -78.3349 161.704
lowerback -5.29575 -3.93148 -5.29889
upperback 0.0320811 -4.90168 -1.31975
thorax 3.32547 -2.52546 1.18332
lowerneck 5.28811 -16.0309 -14.2434
upperneck 12.5392 -26.1135 19.2969
head 7.44733 -13.102 6.28239
rclavicle -7.94393e-014 -1.47101e-014
rhumerus -40.1537 -10.2575 -79.6353
rradius 114.697
rwrist -21.1951
rhand -13.9834 37.3631
rfingers 7.12502
rthumb 12.1451 7.73566
lclavicle -7.94393e-014 -1.47101e-014
lhumerus -28.2377 -33.0119 92.9128
lradius 103.464
lwrist 12.1969
lhand -3.89398 29.6748
lfingers 7.12502
lthumb 21.8558 58.4606
rfemur -3.95462 13.5536 11.5577
rtibia 10.6906
rfoot -8.06477 -9.26272
rtoes -16.693
lfemur 3.57928 -2.28107 -19.9647
ltibia 1.24259
lfoot -8.71718 13.5182
ltoes 14.8357
